<svg xmlns="http://www.w3.org/2000/svg" version="1.1" xmlns:xlink="http://www.w3.org/1999/xlink" xmlns:svgjs="http://svgjs.dev/svgjs" width="1440" height="560" preserveAspectRatio="none" viewBox="0 0 1440 560"><g mask="url(&quot;#SvgjsMask1610&quot;)" fill="none"><rect width="1440" height="560" x="0" y="0" fill="url(&quot;#SvgjsLinearGradient1611&quot;)"></rect><path d="M1488 560L0 560 L0 313.99Q65.92 259.91, 120 325.83Q181.25 315.08, 192 376.33Q209.04 321.37, 264 338.4Q271.92 274.31, 336 282.23Q408.15 234.38, 456 306.54Q503.06 281.61, 528 328.67Q596.75 277.43, 648 346.18Q697.85 324.03, 720 373.89Q727.91 309.8, 792 317.71Q838.33 244.03, 912 290.36Q972.49 278.85, 984 339.33Q1058.21 293.54, 1104 367.75Q1131.68 323.43, 1176 351.11Q1229.12 284.23, 1296 337.34Q1370.38 291.71, 1416 366.09Q1428.58 306.67, 1488 319.25z" fill="rgba(25, 71, 108, 1)"></path><path d="M1488 560L0 560 L0 412.98Q25.11 366.09, 72 391.19Q96.3 343.49, 144 367.79Q223.39 327.19, 264 406.58Q315.74 338.32, 384 390.06Q411.86 345.92, 456 373.78Q532.44 330.22, 576 406.66Q613.93 324.59, 696 362.52Q745.56 340.08, 768 389.64Q840.66 342.3, 888 414.96Q917.39 324.35, 1008 353.74Q1057.57 331.31, 1080 380.87Q1144.36 373.23, 1152 437.58Q1182.77 396.35, 1224 427.12Q1247.53 378.65, 1296 402.18Q1310.13 344.31, 1368 358.44Q1441.83 312.26, 1488 386.09z" fill="rgba(115, 174, 222, 1)"></path><path d="M1464 560L0 560 L0 442.87Q83.38 406.25, 120 489.64Q169.08 418.72, 240 467.79Q270.79 426.58, 312 457.36Q342.12 415.48, 384 445.59Q445.93 435.52, 456 497.45Q482.42 451.87, 528 478.28Q563.06 393.33, 648 428.39Q718.82 379.21, 768 450.03Q839.34 401.37, 888 472.71Q923.12 387.82, 1008 422.94Q1052.2 395.14, 1080 439.34Q1122.15 409.5, 1152 451.65Q1203.14 430.79, 1224 481.93Q1278.69 416.63, 1344 471.32Q1418.09 425.4, 1464 499.49z" fill="rgba(197, 222, 242, 1)"></path><path d="M1512 560L0 560 L0 491.67Q89.87 461.54, 120 551.42Q149.71 509.13, 192 538.83Q267.66 494.49, 312 570.15Q378.16 516.31, 432 582.46Q470.77 501.23, 552 540Q590.13 458.13, 672 496.25Q744.94 449.19, 792 522.14Q865.95 476.09, 912 550.03Q945.8 463.83, 1032 497.62Q1109.42 455.04, 1152 532.46Q1233.58 494.04, 1272 575.61Q1304.78 488.39, 1392 521.17Q1440.51 449.68, 1512 498.2z" fill="rgba(239, 240, 241, 1)"></path></g><defs><mask id="SvgjsMask1610"><rect width="1440" height="560" fill="#ffffff"></rect></mask><linearGradient x1="15.28%" y1="-39.29%" x2="84.72%" y2="139.29%" gradientUnits="userSpaceOnUse" id="SvgjsLinearGradient1611"><stop stop-color="#0e2a47" offset="0"></stop><stop stop-color="rgba(19, 48, 84, 1)" offset="1"></stop></linearGradient></defs></svg>