<svg xmlns="http://www.w3.org/2000/svg" version="1.1" xmlns:xlink="http://www.w3.org/1999/xlink" xmlns:svgjs="http://svgjs.dev/svgjs" width="1440" height="560" preserveAspectRatio="none" viewBox="0 0 1440 560"><g mask="url(&quot;#SvgjsMask1003&quot;)" fill="none"><path d="M560 125.26C542.62 128.02 527.69 133.01 527.69 140C527.69 146.84 546.92 141.72 560 152.92C628.63 211.72 634.7 211.44 691.11 280C704.7 296.52 683.79 323.08 700 323.08C744.23 323.08 795.71 321.36 812 280C831.77 229.82 808.72 194.7 772.12 140C752.72 111.02 737.58 115.25 700 112.64C631.52 107.88 628.78 114.34 560 125.26" stroke="rgba(115, 174, 222, 1)" stroke-width="2"></path><path d="M980 131.76C966.11 131.76 952 129.79 952 140C952 161.91 966.97 196 980 196C992.63 196 1003.33 162.81 1003.33 140C1003.33 130.69 991.77 131.76 980 131.76" stroke="rgba(115, 174, 222, 1)" stroke-width="2"></path><path d="M140 240.43C75.66 221.52 43.25 258 0 226.97C-26.75 207.78 0 183.49 0 140C0 70 -35 35 0 0C35 -35 70 0 140 0C210 0 210 0 280 0C350 0 350 0 420 0C490 0 490 0 560 0C630 0 630 0 700 0C770 0 770 0 840 0C910 0 910 0 980 0C1050 0 1050 0 1120 0C1190 0 1190 0 1260 0C1330 0 1330 0 1400 0C1470 0 1505 -35 1540 0C1575 35 1540 70 1540 140C1540 210 1540 210 1540 280C1540 350 1540 350 1540 420C1540 490 1568 518 1540 560C1521.33 588 1483.88 578 1446.67 560C1413.88 544.13 1426.71 492.26 1400 492.26C1368.37 492.26 1370.73 540.29 1330 560C1300.73 574.16 1295 560 1260 560C1194.38 560 1194.09 561.55 1128.75 560C1124.09 559.89 1124.13 556.67 1120 556.67C1117.57 556.67 1118.36 559.94 1115.63 560C1048.36 561.6 1047.82 560 980 560C910 560 910 560 840 560C770 560 770 560 700 560C630 560 630 560 560 560C490 560 490 560 420 560C350 560 350 560 280 560C210 560 210 560 140 560C114.21 560 88.42 568.97 88.42 560C88.42 548.56 119.86 544.55 140 519.17C175.4 474.55 190.4 473.83 199.5 420C210.62 354.24 201.68 344.11 180.44 280C171.93 254.33 165.88 248.04 140 240.43" stroke="rgba(115, 174, 222, 1)" stroke-width="2"></path><path d="M1260 226.55C1229.83 230.32 1221.67 247.91 1215.45 280C1202.92 344.64 1208.28 352.97 1222.5 420C1230.56 457.97 1236.37 490 1260 490C1288.99 490 1293.87 455 1327.74 420C1363.87 382.66 1369.85 386.73 1400 345.33C1420.83 316.73 1429.7 309 1429.7 280C1429.7 264.81 1417.64 262.5 1400 256.94C1332.79 235.77 1322.11 218.79 1260 226.55" stroke="rgba(115, 174, 222, 1)" stroke-width="2"></path><path d="M0 377.22C17.04 377.22 55 395.54 55 420C55 450.41 15.51 486.96 0 486.96C-11.99 486.96 0 453.48 0 420C0 398.61 -10.46 377.22 0 377.22" stroke="rgba(115, 174, 222, 1)" stroke-width="2"></path><path d="M420 388.18C389.46 392.38 364.74 401.3 364.74 420C364.74 441.63 386.63 464.54 420 468.84C484.26 477.11 490.73 460.15 560 445.13C603.34 435.73 645.22 432.96 645.22 420C645.22 406.97 603.85 399.35 560 393.15C491.24 383.44 487.09 378.95 420 388.18" stroke="rgba(115, 174, 222, 1)" stroke-width="2"></path><path d="M252.61 0C284.47 20.48 263.12 90 280 90C297.82 90 286.77 22.65 322 0C356.77 -22.35 371 0 420 0C490 0 490 0 560 0C630 0 630 0 700 0C758.34 0 816.67 -16.63 816.67 0C816.67 19.57 763.49 56.61 700 72.41C635.15 88.54 628.03 53.98 560 63.86C488.03 74.31 489.75 87.79 420 113.08C384.75 125.86 350 127.5 350 140C350 152.25 384.95 151.44 420 162.58C489.95 184.82 497.22 172.57 560 206.77C605 231.28 635.56 244.48 635.56 280C635.56 313.7 604.79 333.75 560 345.21C497.01 361.33 485.36 319.29 420 335.15C345.36 353.27 332.45 427.58 280 413.17C232.11 400.01 259.14 339.94 219.33 280C189.14 234.55 187.95 225.57 140 202.39C78.28 172.54 56.56 199.15 0 173.94C-13.44 167.95 0 156.97 0 140C0 70 -35 35 0 0C35 -35 70 0 140 0C196.31 0 214.47 -24.52 252.61 0" stroke="rgba(115, 174, 222, 1)" stroke-width="2"></path><path d="M980 80.29C917.58 52.48 866.25 22.09 866.25 0C866.25 -18.05 923.13 0 980 0C1050 0 1050 0 1120 0C1154.18 0 1163.29 -17.8 1188.37 0C1233.29 31.88 1226.56 99.35 1260 99.35C1291.43 99.35 1277.21 29.02 1318.11 0C1347.21 -20.65 1359.05 0 1400 0C1470 0 1498.91 -28.91 1540 0C1568.91 20.35 1547.05 50.92 1540 98.52C1536.68 120.92 1519.26 119.84 1519.26 140C1519.26 156.58 1537.29 153.73 1540 172C1547.66 223.73 1540 226 1540 280C1540 332.5 1553.39 385 1540 385C1524.75 385 1520.05 325.11 1482.73 280C1450.05 240.49 1445.85 239.87 1400 215.76C1334.49 181.32 1330.96 186.28 1260 162.91C1215.96 148.4 1213.44 155.46 1170 140C1143.44 130.55 1146.9 121.53 1120 113.08C1051.9 91.68 1044.46 109.02 980 80.29" stroke="rgba(115, 174, 222, 1)" stroke-width="2"></path><path d="M1048.21 280C1086.92 226.05 1089.95 168 1120 168C1147.05 168 1153.2 221.91 1162.42 280C1173.2 347.91 1174.37 354.51 1160 420C1153.16 451.18 1144.44 451.07 1120 473.33C1067.57 521.07 1065.39 523.39 1006.25 560C995.39 566.72 993.13 560 980 560C910 560 910 560 840 560C773.18 560 726.95 593.25 706.36 560C683.61 523.25 715.5 480.23 753.33 420C782.32 373.83 789.51 359.87 840 347.2C902.85 331.43 920.96 382.19 980 363.13C1025.06 348.59 1016.92 323.61 1048.21 280" stroke="rgba(115, 174, 222, 1)" stroke-width="2"></path><path d="M221.29 560C221.29 517.74 237.32 440.77 280 438.67C336.68 435.88 344.38 536.37 420 550.23C484.38 562.03 491.27 487.54 560 490C627.85 492.43 693.17 541.43 693.17 560C693.17 576.43 626.59 560 560 560C490 560 490 560 420 560C350 560 350 560 280 560C250.64 560 221.29 578.41 221.29 560" stroke="rgba(115, 174, 222, 1)" stroke-width="2"></path><path d="M1524.44 560C1524.44 540.73 1536.02 510 1540 510C1543.8 510 1545.93 540.93 1540 560C1538.15 565.93 1524.44 565.73 1524.44 560" stroke="rgba(115, 174, 222, 1)" stroke-width="2"></path><path d="M50.4 140C20.92 125.4 10.47 124.09 0 95C-14.73 54.09 -28.3 19.2 0 0C41.7 -28.3 70 0 140 0C158.26 0 170.17 -14.29 176.52 0C201.28 55.71 214.65 84.08 202.22 140C196.39 166.25 171.77 164.35 140 164.35C95.86 164.35 90.92 160.07 50.4 140" stroke="rgba(115, 174, 222, 1)" stroke-width="2"></path><path d="M560 2.46C546.21 -0.18 532 0.62 532 0C532 -0.61 546 0 560 0C630 0 630 0 700 0C725.92 0 751.85 -7.39 751.85 0C751.85 8.7 728.67 31.81 700 32.18C632.75 33.04 630.21 15.91 560 2.46" stroke="rgba(115, 174, 222, 1)" stroke-width="2"></path><path d="M980 28.82C956.99 28.82 939.17 7.93 939.17 0C939.17 -6.48 959.58 0 980 0C1034.45 0 1088.89 -7.08 1088.89 0C1088.89 7.33 1031.85 28.82 980 28.82" stroke="rgba(115, 174, 222, 1)" stroke-width="2"></path><path d="M1320.54 140C1315.47 84.17 1348.13 63.46 1384.15 0C1387.86 -6.54 1392.07 0 1400 0C1435 0 1460.96 -23.24 1470 0C1488.18 46.76 1478.45 80.12 1454.44 140C1443.45 167.42 1428.57 174.59 1400 174.59C1361.62 174.59 1323.4 171.46 1320.54 140" stroke="rgba(115, 174, 222, 1)" stroke-width="2"></path><path d="M258.22 280C258.22 251.54 256.42 223.01 280 222.35C337.31 220.75 347.84 265.62 420 275.48C487.84 284.75 493.21 258.73 560 260.62C573.21 260.99 580 270.6 580 280C580 288.92 572.64 297.09 560 297.26C492.64 298.15 488.43 274.66 420 282.12C348.43 289.93 339.62 328.58 280 327.8C258.73 327.52 258.22 304.26 258.22 280" stroke="rgba(115, 174, 222, 1)" stroke-width="2"></path><path d="M1535.76 280C1535.76 276.01 1538.87 272 1540 272C1540.99 272 1540 276 1540 280C1540 283.89 1540.99 287.78 1540 287.78C1538.87 287.78 1535.76 283.9 1535.76 280" stroke="rgba(115, 174, 222, 1)" stroke-width="2"></path><path d="M836.67 420C837.44 417.97 838.02 417.2 840 417.2C845.07 417.2 848.49 415.09 850.77 420C881.55 486.49 909.85 511.36 906.11 560C904.47 581.36 873.06 560 840 560C812.95 560 786.35 578.65 785.91 560C784.69 508.65 810.39 489.37 836.67 420" stroke="rgba(115, 174, 222, 1)" stroke-width="2"></path><path d="M505.56 560C505.56 553.41 533.1 534.87 560 534.87C584.22 534.87 607.8 553.33 607.8 560C607.8 565.9 583.9 560 560 560C532.78 560 505.56 565.98 505.56 560" stroke="rgba(115, 174, 222, 1)" stroke-width="2"></path></g><defs><mask id="SvgjsMask1003"><rect width="1440" height="560" fill="#ffffff"></rect></mask></defs></svg>