<svg xmlns="http://www.w3.org/2000/svg" version="1.1" xmlns:xlink="http://www.w3.org/1999/xlink" xmlns:svgjs="http://svgjs.dev/svgjs" width="1440" height="560" preserveAspectRatio="none" viewBox="0 0 1440 560"><g mask="url(&quot;#SvgjsMask1011&quot;)" fill="none"><path d="M588.06-76.33C465.9-57.2 433.43 215.14 205.43 237.08-22.57 259.02-70.48 422.32-177.2 427.48" stroke="rgba(115, 174, 222, 1)" stroke-width="2"></path><path d="M560.41-98.26C421.18-67.18 365.69 297.3 151.89 300.17-61.9 303.04-148.22 156.72-256.62 154.57" stroke="rgba(115, 174, 222, 1)" stroke-width="2"></path><path d="M1084.44-53.39C894.09-8.23 828.52 494.51 533 501.85 237.48 509.19 123.13 373.9-18.44 373.05" stroke="rgba(115, 174, 222, 1)" stroke-width="2"></path><path d="M1034.49-74.88C893.57-37.28 854.44 343.7 636.56 351.73 418.68 359.76 437.59 281.73 238.62 281.73 39.66 281.73-58.3 351.46-159.31 351.73" stroke="rgba(115, 174, 222, 1)" stroke-width="2"></path><path d="M1327.67-24.08C1108.82 9.63 991.26 533.06 640.33 534.54 289.39 536.02 137.94 265.15-47.02 260.14" stroke="rgba(115, 174, 222, 1)" stroke-width="2"></path></g><defs><mask id="SvgjsMask1011"><rect width="1440" height="560" fill="#ffffff"></rect></mask></defs></svg>