<svg xmlns="http://www.w3.org/2000/svg" version="1.1" xmlns:xlink="http://www.w3.org/1999/xlink" xmlns:svgjs="http://svgjs.dev/svgjs" width="1440" height="560" preserveAspectRatio="none" viewBox="0 0 1440 560"><g mask="url(&quot;#SvgjsMask1010&quot;)" fill="none"><path d="M919.05 655.62C1022.97 604.75 970.6 270.88 1170.44 267.05 1370.28 263.22 1543.81 389.36 1673.22 390.25" stroke="rgba(115, 174, 222, 1)" stroke-width="2"></path><path d="M387.71 597.52C523.01 582.6 602.88 287.87 834.11 285.74 1065.34 283.61 1057.31 355.74 1280.5 355.74 1503.7 355.74 1613.94 285.95 1726.9 285.74" stroke="rgba(115, 174, 222, 1)" stroke-width="2"></path><path d="M411.23 670.39C538.86 659.37 622.27 398.94 844.99 397.6 1067.71 396.26 1061.87 467.6 1278.75 467.6 1495.63 467.6 1602.67 397.82 1712.51 397.6" stroke="rgba(115, 174, 222, 1)" stroke-width="2"></path><path d="M566.28 613.6C750.31 582.73 843.63 133.13 1136.04 131.42 1428.44 129.71 1553.29 346.12 1705.79 349.82" stroke="rgba(115, 174, 222, 1)" stroke-width="2"></path><path d="M283.59 667.75C402.66 666.59 512.71 540.92 742.7 540.89 972.7 540.86 972.26 610.89 1201.82 610.89 1431.37 610.89 1544.83 541.09 1660.93 540.89" stroke="rgba(115, 174, 222, 1)" stroke-width="2"></path></g><defs><mask id="SvgjsMask1010"><rect width="1440" height="560" fill="#ffffff"></rect></mask></defs></svg>