<svg xmlns="http://www.w3.org/2000/svg" version="1.1" xmlns:xlink="http://www.w3.org/1999/xlink" xmlns:svgjs="http://svgjs.dev/svgjs" width="1440" height="250" preserveAspectRatio="none" viewBox="0 0 1440 250"><g mask="url(&quot;#SvgjsMask1017&quot;)" fill="none"><path d="M28 250L278 0L347 0L97 250z" fill="url(&quot;#SvgjsLinearGradient1018&quot;)"></path><path d="M285.6 250L535.6 0L825.1 0L575.1 250z" fill="url(&quot;#SvgjsLinearGradient1018&quot;)"></path><path d="M479.20000000000005 250L729.2 0L1072.7 0L822.7 250z" fill="url(&quot;#SvgjsLinearGradient1018&quot;)"></path><path d="M736.8000000000001 250L986.8000000000001 0L1115.8000000000002 0L865.8000000000001 250z" fill="url(&quot;#SvgjsLinearGradient1018&quot;)"></path><path d="M1432 250L1182 0L1051.5 0L1301.5 250z" fill="url(&quot;#SvgjsLinearGradient1019&quot;)"></path><path d="M1167.4 250L917.4000000000001 0L750.9000000000001 0L1000.9000000000001 250z" fill="url(&quot;#SvgjsLinearGradient1019&quot;)"></path><path d="M932.8 250L682.8 0L441.29999999999995 0L691.3 250z" fill="url(&quot;#SvgjsLinearGradient1019&quot;)"></path><path d="M724.1999999999999 250L474.19999999999993 0L406.69999999999993 0L656.6999999999999 250z" fill="url(&quot;#SvgjsLinearGradient1019&quot;)"></path><path d="M1249.886774869362 250L1440 59.88677486936203L1440 250z" fill="url(&quot;#SvgjsLinearGradient1018&quot;)"></path><path d="M0 250L190.11322513063797 250L 0 59.88677486936203z" fill="url(&quot;#SvgjsLinearGradient1019&quot;)"></path></g><defs><mask id="SvgjsMask1017"><rect width="1440" height="250" fill="#ffffff"></rect></mask><linearGradient x1="0%" y1="100%" x2="100%" y2="0%" id="SvgjsLinearGradient1018"><stop stop-color="rgba(115, 174, 222, 1)" offset="0"></stop><stop stop-opacity="0" stop-color="rgba(115, 174, 222, 1)" offset="0.66"></stop></linearGradient><linearGradient x1="100%" y1="100%" x2="0%" y2="0%" id="SvgjsLinearGradient1019"><stop stop-color="rgba(115, 174, 222, 1)" offset="0"></stop><stop stop-opacity="0" stop-color="rgba(115, 174, 222, 1)" offset="0.66"></stop></linearGradient></defs></svg>